<svg width="32" height="78" viewBox="0 0 32 78" fill="none" xmlns="http://www.w3.org/2000/svg" aria-hidden="true" focusable="false" role="img">
<path d="M15.1729 76.2988H14.1729V77.2988H15.1729V76.2988ZM15.1729 14.8988H16.1729V13.8988H15.1729V14.8988ZM1.17285 14.8988H0.172852V15.8988H1.17285V14.8988ZM1.17285 1.89883L1.16946 0.898832L0.172852 0.902211V1.89883H1.17285ZM30.6729 1.79882H31.6729V0.795426L30.6695 0.798827L30.6729 1.79882ZM30.6729 76.2988V77.2988H31.6729V76.2988H30.6729ZM16.1729 76.2988V14.8988H14.1729V76.2988H16.1729ZM15.1729 13.8988H1.17285V15.8988H15.1729V13.8988ZM2.17285 14.8988V1.89883H0.172852V14.8988H2.17285ZM1.17624 2.89882L30.6762 2.79882L30.6695 0.798827L1.16946 0.898832L1.17624 2.89882ZM29.6729 1.79882V76.2988H31.6729V1.79882H29.6729ZM30.6729 75.2988H15.1729V77.2988H30.6729V75.2988Z" fill="currentColor"/>
</svg>
