<svg width="53" height="79" viewBox="0 0 53 79" fill="none" xmlns="http://www.w3.org/2000/svg"  aria-hidden="true" focusable="false" role="img">
<path d="M1.27285 77.1831L0.272886 77.1914L0.28115 78.1831H1.27285V77.1831ZM1.17285 65.1831L0.455373 64.4865L0.169466 64.781L0.172886 65.1914L1.17285 65.1831ZM21.1729 44.5831L21.8903 45.2797L21.8916 45.2783L21.1729 44.5831ZM30.0729 34.9831L29.3151 34.3306L29.3136 34.3323L30.0729 34.9831ZM34.2729 28.9831L33.3784 28.5359L33.3708 28.551L33.3638 28.5664L34.2729 28.9831ZM32.9729 17.8831L32.2803 18.6045L32.288 18.6118L32.2958 18.619L32.9729 17.8831ZM18.4729 17.9831L19.061 18.7919L19.0652 18.7888L18.4729 17.9831ZM13.6729 24.7831L13.1752 25.6505L14.2278 26.2544L14.6194 25.1058L13.6729 24.7831ZM1.47285 17.7831L0.528015 17.4556L0.256693 18.2382L0.975182 18.6505L1.47285 17.7831ZM10.9729 5.8831L10.4352 5.03994L10.4352 5.03994L10.9729 5.8831ZM39.5729 4.0831L39.1324 4.98092L39.139 4.98411L39.5729 4.0831ZM47.9729 11.3831L48.8158 10.8451L48.8158 10.8451L47.9729 11.3831ZM47.6729 34.0831L48.5304 34.5976L48.5344 34.5908L47.6729 34.0831ZM37.6729 46.3831L36.9605 45.6812L36.9557 45.6861L37.6729 46.3831ZM20.3729 64.1831L19.6557 63.4861L18.0064 65.1831H20.3729V64.1831ZM51.8729 64.1831H52.8729V63.1831H51.8729V64.1831ZM51.8729 77.1831V78.1831H52.8729V77.1831H51.8729ZM2.27282 77.1748L2.17282 65.1748L0.172886 65.1914L0.272886 77.1914L2.27282 77.1748ZM1.89033 65.8797L21.8903 45.2797L20.4554 43.8865L0.455373 64.4865L1.89033 65.8797ZM21.8916 45.2783C25.8294 41.2071 28.8125 37.9901 30.8321 35.6339L29.3136 34.3323C27.3332 36.6428 24.3829 39.8258 20.4541 43.8879L21.8916 45.2783ZM30.8306 35.6356C32.918 33.2116 34.3901 31.1275 35.1819 29.3998L33.3638 28.5664C32.689 30.0387 31.361 31.9546 29.3151 34.3306L30.8306 35.6356ZM35.1673 29.4303C36.0252 27.7146 36.4729 25.9956 36.4729 24.2831H34.4729C34.4729 25.6373 34.1205 27.0516 33.3784 28.5359L35.1673 29.4303ZM36.4729 24.2831C36.4729 21.3328 35.5644 18.9085 33.6499 17.1472L32.2958 18.619C33.7147 19.9244 34.4729 21.7668 34.4729 24.2831H36.4729ZM33.6654 17.1617C31.7701 15.3423 29.2323 14.4831 26.1729 14.4831V16.4831C28.8468 16.4831 30.8423 17.2239 32.2803 18.6045L33.6654 17.1617ZM26.1729 14.4831C23.0974 14.4831 20.3223 15.382 17.8805 17.1775L19.0652 18.7888C21.1567 17.2509 23.515 16.4831 26.1729 16.4831V14.4831ZM17.8847 17.1744C15.4954 18.912 13.7832 21.3602 12.7263 24.4604L14.6194 25.1058C15.5625 22.3393 17.0503 20.2542 19.061 18.7918L17.8847 17.1744ZM14.1705 23.9157L1.97052 16.9157L0.975182 18.6505L13.1752 25.6505L14.1705 23.9157ZM2.41769 18.1106C4.07481 13.3305 7.09408 9.54254 11.5105 6.72626L10.4352 5.03994C5.65162 8.09033 2.33756 12.2357 0.528015 17.4556L2.41769 18.1106ZM11.5105 6.72626C15.9288 3.90882 21.1367 2.4831 27.1729 2.4831V0.483103C20.809 0.483103 15.2169 1.99072 10.4352 5.03994L11.5105 6.72626ZM27.1729 2.4831C31.7841 2.4831 35.7612 3.32709 39.1324 4.98089L40.0133 3.18532C36.3178 1.37245 32.0283 0.483103 27.1729 0.483103V2.4831ZM39.139 4.98411C42.5846 6.6431 45.2374 8.95623 47.1299 11.9211L48.8158 10.8451C46.7083 7.54331 43.7611 4.98978 40.0067 3.1821L39.139 4.98411ZM47.1299 11.9211C49.0145 14.8736 49.9729 18.3483 49.9729 22.3831H51.9729C51.9729 18.0179 50.9312 14.1593 48.8158 10.8451L47.1299 11.9211ZM49.9729 22.3831C49.9729 26.2594 48.9268 29.9854 46.8113 33.5754L48.5344 34.5908C50.8189 30.7141 51.9729 26.6401 51.9729 22.3831H49.9729ZM46.8154 33.5686C44.6707 37.143 41.3958 41.1798 36.9605 45.6813L38.3852 47.085C42.8833 42.5197 46.275 38.3566 48.5303 34.5976L46.8154 33.5686ZM36.9557 45.6861L19.6557 63.4861L21.09 64.8801L38.39 47.0801L36.9557 45.6861ZM20.3729 65.1831H51.8729V63.1831H20.3729V65.1831ZM50.8729 64.1831V77.1831H52.8729V64.1831H50.8729ZM51.8729 76.1831H1.27285V78.1831H51.8729V76.1831Z" fill="currentColor"/>
</svg>
