<svg width="57" height="79" viewBox="0 0 57 79" fill="none" xmlns="http://www.w3.org/2000/svg"  aria-hidden="true" focusable="false" role="img">
<path d="M11.7729 73.1623L11.2296 74.0019L11.2352 74.0055L11.7729 73.1623ZM2.17285 61.2623L1.67518 60.3949L0.939259 60.8172L1.23601 61.6121L2.17285 61.2623ZM14.3729 54.2623L15.3121 53.9189L14.9046 52.8043L13.8752 53.3949L14.3729 54.2623ZM36.2729 60.5623L36.9568 61.2918L36.9575 61.2912L36.2729 60.5623ZM36.3729 44.2623L35.6889 44.9918L35.6951 44.9976L35.7013 45.0033L36.3729 44.2623ZM19.1729 43.1623L18.2713 43.595L18.7111 44.5112L19.6201 44.0567L19.1729 43.1623ZM15.5729 35.6623L14.838 34.984L14.3775 35.4829L14.6713 36.095L15.5729 35.6623ZM34.7729 14.8623L35.5077 15.5406L37.0568 13.8623H34.7729V14.8623ZM5.57285 14.8623H4.57285V15.8623H5.57285V14.8623ZM5.57285 1.8623V0.862298H4.57285V1.8623H5.57285ZM52.0729 1.8623H53.0729V0.862298H52.0729V1.8623ZM52.0729 13.8623L52.8198 14.5272L53.0729 14.2429V13.8623H52.0729ZM37.4729 30.2623L36.7259 29.5974L35.5296 30.9413L37.3025 31.2477L37.4729 30.2623ZM50.2729 37.3623L49.5013 37.9985L49.5079 38.0064L50.2729 37.3623ZM51.4729 64.9623L50.6192 64.4414L50.6192 64.4414L51.4729 64.9623ZM41.6729 74.2623L42.1427 75.1451L42.1537 75.1391L41.6729 74.2623ZM27.5729 76.5623C21.8127 76.5623 16.7359 75.1411 12.3105 72.3191L11.2352 74.0055C16.0098 77.0502 21.4664 78.5623 27.5729 78.5623V76.5623ZM12.3161 72.3227C7.96091 69.5047 4.90026 65.7087 3.10969 60.9125L1.23601 61.6121C3.17878 66.8159 6.51813 70.9533 11.2296 74.0019L12.3161 72.3227ZM2.67052 62.1297L14.8705 55.1297L13.8752 53.3949L1.67518 60.3949L2.67052 62.1297ZM13.4336 54.6057C14.6209 57.8532 16.3959 60.3631 18.7969 62.0548C21.1988 63.747 24.1448 64.5623 27.5729 64.5623V62.5623C24.4675 62.5623 21.9469 61.8276 19.9488 60.4198C17.9498 59.0115 16.3915 56.8715 15.3121 53.9189L13.4336 54.6057ZM27.5729 64.5623C31.4262 64.5623 34.5942 63.5068 36.9568 61.2918L35.5889 59.8328C33.6849 61.6178 31.0529 62.5623 27.5729 62.5623V64.5623ZM36.9575 61.2912C39.3893 59.0068 40.5729 55.9601 40.5729 52.2623H38.5729C38.5729 55.4978 37.5564 57.9845 35.5882 59.8335L36.9575 61.2912ZM40.5729 52.2623C40.5729 48.6358 39.425 45.6787 37.0444 43.5213L35.7013 45.0033C37.5874 46.7126 38.5729 49.0888 38.5729 52.2623H40.5729ZM37.0568 43.5328C34.691 41.3148 31.4872 40.2623 27.5729 40.2623V42.2623C31.1251 42.2623 33.7881 43.2098 35.6889 44.9918L37.0568 43.5328ZM27.5729 40.2623C24.364 40.2623 21.4091 40.9262 18.7256 42.2679L19.6201 44.0567C22.0033 42.8651 24.6483 42.2623 27.5729 42.2623V40.2623ZM20.0744 42.7296L16.4744 35.2296L14.6713 36.095L18.2713 43.595L20.0744 42.7296ZM16.3077 36.3406L35.5077 15.5406L34.038 14.184L14.838 34.984L16.3077 36.3406ZM34.7729 13.8623H5.57285V15.8623H34.7729V13.8623ZM6.57285 14.8623V1.8623H4.57285V14.8623H6.57285ZM5.57285 2.8623H52.0729V0.862298H5.57285V2.8623ZM51.0729 1.8623V13.8623H53.0729V1.8623H51.0729ZM51.3259 13.1974L36.7259 29.5974L38.2198 30.9272L52.8198 14.5272L51.3259 13.1974ZM37.3025 31.2477C42.4952 32.1452 46.5376 34.4042 49.5013 37.9985L51.0444 36.7261C47.7415 32.7204 43.2505 30.2461 37.6432 29.2769L37.3025 31.2477ZM49.5079 38.0064C52.5331 41.5988 54.0729 46.1263 54.0729 51.6623H56.0729C56.0729 45.7316 54.4126 40.7258 51.0378 36.7182L49.5079 38.0064ZM54.0729 51.6623C54.0729 56.4254 52.9167 60.6761 50.6192 64.4414L52.3265 65.4832C54.829 61.3818 56.0729 56.7659 56.0729 51.6623H54.0729ZM50.6192 64.4414C48.3124 68.222 45.1758 71.2008 41.192 73.3855L42.1537 75.1391C46.4366 72.7904 49.8333 69.5693 52.3265 65.4832L50.6192 64.4414ZM41.203 73.3796C37.2316 75.4934 32.6964 76.5623 27.5729 76.5623V78.5623C32.9826 78.5623 37.8475 77.4312 42.1427 75.1451L41.203 73.3796Z" fill="currentColor"/>
</svg>
