<svg width="349" height="348" viewBox="0 0 349 348" fill="none" xmlns="http://www.w3.org/2000/svg">
<path d="M157.583 330.719L155.89 342.518L151.044 341.823C150.231 341.706 149.533 341.46 148.951 341.086C148.358 340.71 147.923 340.217 147.644 339.605C147.365 338.994 147.285 338.277 147.403 337.453C147.518 336.651 147.802 335.991 148.253 335.474C148.703 334.967 149.259 334.616 149.923 334.421L147.906 329.331L150.661 329.726L152.44 334.345L154.514 334.643L155.128 330.366L157.583 330.719ZM154.208 336.781L151.8 336.435C151.283 336.361 150.85 336.45 150.501 336.702C150.142 336.952 149.928 337.32 149.858 337.806C149.787 338.302 149.888 338.721 150.163 339.062C150.427 339.401 150.817 339.608 151.335 339.682L153.742 340.028L154.208 336.781Z" fill="white"/>
<path d="M141.044 327.956L138.176 339.526L130.395 337.598L130.915 335.501L136.289 336.833L136.939 334.208L131.876 332.953L132.396 330.857L137.459 332.112L138.117 329.456L132.743 328.124L133.279 326.031L141.044 327.956Z" fill="white"/>
<path d="M127.603 324.369L119.856 334.298L116.757 333.222L116.826 320.629L119.305 321.489L119.263 324.049L123.571 325.544L125.124 323.509L127.603 324.369ZM122.198 327.354L119.22 326.32L119.117 331.399L122.198 327.354Z" fill="white"/>
<path d="M113.841 319.308L108.891 330.152L105.354 328.537C104.18 328.001 103.267 327.303 102.616 326.443C101.965 325.583 101.588 324.637 101.484 323.605C101.381 322.573 101.569 321.533 102.047 320.485C102.525 319.437 103.191 318.609 104.043 318.001C104.89 317.403 105.852 317.068 106.928 316.997C108.004 316.925 109.13 317.158 110.304 317.694L113.841 319.308ZM110.688 320.243L109.349 319.632C108.64 319.309 107.965 319.17 107.322 319.217C106.675 319.273 106.093 319.494 105.577 319.88C105.047 320.271 104.622 320.816 104.303 321.515C103.98 322.223 103.846 322.901 103.903 323.548C103.949 324.191 104.165 324.77 104.551 325.286C104.937 325.802 105.484 326.222 106.192 326.546L107.532 327.157L110.688 320.243Z" fill="white"/>
<path d="M87.9536 305.103C88.7051 305.591 89.3187 306.174 89.7944 306.851C90.2701 307.529 90.5985 308.257 90.7796 309.036C90.9459 309.818 90.96 310.609 90.8218 311.41C90.6836 312.21 90.3763 312.977 89.9 313.711C89.4237 314.445 88.8526 315.04 88.1865 315.498C87.5115 315.95 86.7859 316.255 86.0097 316.412C85.2246 316.564 84.4257 316.56 83.6131 316.401C82.8005 316.243 82.014 315.916 81.2536 315.423C80.4931 314.929 79.875 314.343 79.3993 313.666C78.9236 312.988 78.5997 312.263 78.4276 311.489C78.2465 310.711 78.2296 309.924 78.3767 309.129C78.5149 308.329 78.8222 307.562 79.2984 306.828C79.7747 306.094 80.3504 305.502 81.0254 305.05C81.7004 304.598 82.4333 304.291 83.2243 304.131C84.0005 303.973 84.7949 303.974 85.6075 304.133C86.4201 304.292 87.2021 304.615 87.9536 305.103ZM86.7339 306.982C86.1255 306.587 85.4897 306.371 84.8266 306.335C84.1486 306.301 83.5113 306.441 82.9145 306.753C82.3087 307.059 81.7967 307.534 81.3785 308.178C80.9603 308.823 80.7346 309.484 80.7014 310.162C80.6593 310.834 80.7942 311.468 81.1062 312.065C81.4093 312.656 81.865 313.149 82.4733 313.544C83.0817 313.939 83.7219 314.157 84.3941 314.2C85.0572 314.236 85.6917 314.101 86.2974 313.795C86.8943 313.483 87.4018 313.005 87.82 312.36C88.2382 311.716 88.4683 311.058 88.5105 310.386C88.5437 309.708 88.4116 309.069 88.1144 308.469C87.8024 307.872 87.3422 307.377 86.7339 306.982Z" fill="white"/>
<path d="M67.4816 304.996L65.5378 303.456L70.1285 297.662C70.6783 296.968 71.334 296.467 72.0955 296.159C72.857 295.85 73.6554 295.762 74.4906 295.893C75.3175 296.017 76.1155 296.384 76.8846 296.994C77.6454 297.596 78.1851 298.289 78.5036 299.072C78.8221 299.856 78.9183 300.653 78.7922 301.465C78.666 302.277 78.3281 303.03 77.7782 303.724L73.1876 309.517L71.2438 307.977L75.8344 302.183C76.2982 301.598 76.501 300.99 76.4431 300.359C76.3702 299.73 76.0537 299.193 75.4935 298.749C74.925 298.299 74.3303 298.113 73.7093 298.193C73.0816 298.281 72.536 298.617 72.0723 299.203L67.4816 304.996Z" fill="white"/>
<path d="M69.2086 290.711L61.0412 299.394L57.4751 296.039C56.8769 295.476 56.4472 294.874 56.1862 294.233C55.9174 293.585 55.8445 292.931 55.9677 292.27C56.0909 291.61 56.4376 290.977 57.0076 290.371C57.5631 289.781 58.1741 289.403 58.8407 289.24C59.5 289.084 60.1575 289.117 60.8132 289.338L62.088 284.013L64.1158 285.921L62.9156 290.723L64.4422 292.159L67.4022 289.012L69.2086 290.711ZM62.9623 293.732L61.1909 292.066C60.8102 291.707 60.4048 291.531 59.9749 291.537C59.5372 291.535 59.1502 291.713 58.814 292.07C58.4705 292.435 58.313 292.836 58.3414 293.273C58.3621 293.703 58.5628 294.097 58.9435 294.455L60.7149 296.121L62.9623 293.732Z" fill="white"/>
<path d="M52.8161 272.989C53.315 273.6 53.6726 274.258 53.889 274.963C54.1055 275.667 54.1745 276.368 54.096 277.065C54.0175 277.762 53.7887 278.41 53.4094 279.008L51.3386 278.013C51.6939 277.351 51.8444 276.692 51.79 276.034C51.7288 275.368 51.5128 274.808 51.1421 274.353C50.7579 273.882 50.3629 273.592 49.957 273.482C49.5512 273.373 49.2119 273.429 48.939 273.652C48.6993 273.847 48.5732 274.081 48.5607 274.353C48.54 274.631 48.5995 274.94 48.7393 275.28L49.6809 277.651C50.0733 278.638 50.2054 279.501 50.0774 280.238C49.941 280.983 49.567 281.604 48.9552 282.103C48.4013 282.555 47.8106 282.809 47.1831 282.867C46.5406 282.923 45.9014 282.797 45.2655 282.49C44.6295 282.182 44.0386 281.694 43.4926 281.024C43.0073 280.429 42.6691 279.803 42.4781 279.147C42.2788 278.497 42.2153 277.854 42.2877 277.217C42.3451 276.579 42.5337 275.991 42.8535 275.455L44.9244 276.45C44.6143 276.965 44.4761 277.504 44.5096 278.069C44.5432 278.633 44.7622 279.163 45.1666 279.659C45.5104 280.081 45.8819 280.342 46.281 280.444C46.6801 280.545 47.0243 280.477 47.3136 280.242C47.7518 279.884 47.8165 279.322 47.5078 278.555L46.5818 276.255C46.1879 275.283 46.0434 274.43 46.1482 273.698C46.253 272.965 46.6237 272.34 47.2602 271.821C47.8141 271.369 48.4157 271.119 49.065 271.072C49.7075 271.016 50.3535 271.15 51.0028 271.474C51.6522 271.797 52.2567 272.302 52.8161 272.989Z" fill="white"/>
<path d="M45.7129 263.784L37.6709 269.314L39.3843 271.806L37.6045 273.03L32.7905 266.029L34.5703 264.805L36.2657 267.27L44.3077 261.74L45.7129 263.784Z" fill="white"/>
<path d="M37.7506 250.591C38.194 251.37 38.4712 252.169 38.5824 252.99C38.6936 253.81 38.6507 254.608 38.4537 255.383C38.2421 256.154 37.8911 256.863 37.4006 257.511C36.9101 258.158 36.2847 258.698 35.5247 259.131C34.7646 259.564 33.9836 259.831 33.1816 259.931C32.3744 260.023 31.59 259.96 30.8282 259.743C30.0612 259.517 29.3533 259.147 28.7045 258.632C28.0557 258.118 27.507 257.467 27.0583 256.679C26.6097 255.891 26.3298 255.087 26.2186 254.267C26.1074 253.446 26.153 252.653 26.3553 251.887C26.5523 251.112 26.8987 250.406 27.3945 249.767C27.885 249.12 28.5103 248.58 29.2704 248.147C30.0305 247.714 30.8141 247.452 31.6213 247.361C32.4285 247.269 33.2203 247.334 33.9966 247.555C34.7583 247.772 35.4636 248.137 36.1124 248.652C36.7612 249.166 37.3073 249.812 37.7506 250.591ZM35.804 251.699C35.4451 251.069 34.9795 250.585 34.4072 250.249C33.8203 249.908 33.1901 249.739 32.5167 249.742C31.838 249.735 31.1649 249.922 30.4975 250.302C29.8301 250.682 29.3259 251.165 28.985 251.752C28.6388 252.33 28.4672 252.956 28.4701 253.629C28.4678 254.293 28.646 254.94 29.0049 255.571C29.3638 256.201 29.8321 256.689 30.4097 257.036C30.9821 257.372 31.6076 257.544 32.2863 257.55C32.9597 257.547 33.6302 257.356 34.2976 256.976C34.965 256.596 35.4718 256.117 35.818 255.54C36.1589 254.953 36.3352 254.324 36.3468 253.655C36.3438 252.982 36.1629 252.33 35.804 251.699Z" fill="white"/>
<path d="M33.4937 242.798L22.6728 247.798L20.6193 243.353C20.2748 242.608 20.1013 241.889 20.0988 241.197C20.0918 240.495 20.2689 239.861 20.63 239.295C20.991 238.728 21.5492 238.271 22.3045 237.922C23.0404 237.582 23.7481 237.46 24.4276 237.558C25.0974 237.659 25.695 237.936 26.2204 238.386L29.3934 233.924L30.561 236.451L27.6527 240.456L28.5318 242.359L32.4535 240.547L33.4937 242.798ZM26.571 243.265L25.551 241.057C25.3317 240.583 25.0217 240.268 24.6208 240.112C24.2155 239.947 23.7901 239.967 23.3447 240.173C22.8896 240.383 22.5936 240.696 22.4567 241.112C22.3153 241.518 22.3542 241.958 22.5734 242.433L23.5935 244.641L26.571 243.265Z" fill="white"/>
<path d="M27.6857 229.072L22.7974 230.846L17.839 236.883L16.8895 234.266L20.046 230.533L15.2362 229.708L14.2868 227.091L21.9366 228.52L26.8399 226.741L27.6857 229.072Z" fill="white"/>
<path d="M21.9909 210.377L10.3021 212.713L9.34248 207.912C9.1815 207.107 9.18054 206.367 9.33961 205.694C9.49658 205.01 9.81671 204.434 10.3 203.968C10.7833 203.501 11.4329 203.187 12.2487 203.024C13.0437 202.865 13.7601 202.912 14.3981 203.165C15.0257 203.42 15.5423 203.828 15.9481 204.389L20.0748 200.79L20.6205 203.52L16.8578 206.736L17.2686 208.792L21.5048 207.945L21.9909 210.377ZM15.1505 209.215L14.6738 206.83C14.5714 206.318 14.3434 205.939 13.9899 205.694C13.6343 205.439 13.2159 205.359 12.7348 205.456C12.2432 205.554 11.8823 205.789 11.6522 206.161C11.4199 206.523 11.355 206.96 11.4575 207.473L11.9341 209.858L15.1505 209.215Z" fill="white"/>
<path d="M19.0835 193.863L7.21932 195.015L6.44472 187.037L8.59462 186.828L9.12957 192.338L11.8209 192.077L11.3169 186.885L13.4668 186.677L13.9708 191.868L16.694 191.604L16.159 186.094L18.3105 185.901L19.0835 193.863Z" fill="white"/>
<path d="M17.9866 179.996L6.04356 176L6.02484 172.72L17.9214 168.588L17.9364 171.212L15.509 172.026L15.5351 176.585L17.9716 177.372L17.9866 179.996ZM13.3711 175.894L13.3531 172.742L8.53011 174.337L13.3711 175.894Z" fill="white"/>
<path d="M18.1716 165.332L6.29829 164.279L6.64194 160.406C6.75603 159.121 7.11002 158.028 7.70393 157.127C8.29783 156.227 9.06413 155.556 10.0028 155.114C10.9415 154.673 11.9846 154.503 13.1321 154.605C14.2796 154.707 15.2818 155.058 16.1387 155.659C16.985 156.259 17.6212 157.054 18.0473 158.045C18.4734 159.036 18.6294 160.174 18.5153 161.46L18.1716 165.332ZM16.2393 162.671L16.3694 161.205C16.4382 160.429 16.3436 159.746 16.0854 159.156C15.8166 158.565 15.4144 158.09 14.8786 157.732C14.3331 157.362 13.6779 157.143 12.9129 157.075C12.1373 157.007 11.4538 157.107 10.8624 157.375C10.2719 157.633 9.79762 158.03 9.43952 158.566C9.08143 159.102 8.86797 159.758 8.79915 160.533L8.66904 162L16.2393 162.671Z" fill="white"/>
<path d="M22.9386 136.192C22.7291 137.063 22.3841 137.836 21.9037 138.51C21.4233 139.185 20.8461 139.737 20.172 140.167C19.4901 140.585 18.7488 140.861 17.948 140.998C17.1472 141.134 16.3216 141.1 15.4712 140.896C14.6208 140.691 13.8688 140.351 13.2152 139.876C12.5641 139.39 12.035 138.807 11.628 138.128C11.2235 137.438 10.9606 136.684 10.8395 135.865C10.7184 135.046 10.7639 134.195 10.976 133.314C11.1881 132.432 11.5343 131.654 12.0147 130.98C12.4951 130.306 13.0711 129.759 13.7426 129.339C14.4166 128.908 15.1528 128.63 15.9511 128.504C16.7519 128.368 17.5775 128.402 18.4279 128.606C19.2783 128.811 20.0291 129.156 20.6802 129.642C21.3312 130.128 21.8643 130.717 22.2792 131.409C22.6862 132.088 22.9503 132.838 23.0714 133.657C23.1925 134.476 23.1482 135.321 22.9386 136.192ZM20.7608 135.668C20.9305 134.963 20.9219 134.292 20.7352 133.654C20.5405 133.004 20.1967 132.449 19.7036 131.991C19.2131 131.522 18.5945 131.197 17.8478 131.018C17.1011 130.838 16.4026 130.845 15.7524 131.04C15.1047 131.224 14.5514 131.563 14.0927 132.056C13.6365 132.539 13.3235 133.133 13.1539 133.838C12.9842 134.543 12.9915 135.22 13.1757 135.867C13.3625 136.505 13.7012 137.058 14.1917 137.527C14.6847 137.986 15.3046 138.305 16.0513 138.485C16.798 138.664 17.4952 138.662 18.1429 138.478C18.7932 138.283 19.3516 137.946 19.8182 137.465C20.2769 136.972 20.5911 136.373 20.7608 135.668Z" fill="white"/>
<path d="M16.2172 116.855L17.0216 114.509L24.014 116.906C24.8515 117.194 25.5425 117.645 26.087 118.26C26.6316 118.875 26.9813 119.598 27.1361 120.43C27.2943 121.251 27.2143 122.125 26.896 123.054C26.5812 123.972 26.1077 124.711 25.4754 125.273C24.8432 125.834 24.1233 126.191 23.3158 126.342C22.5083 126.494 21.6859 126.426 20.8484 126.139L13.856 123.741L14.6604 121.395L21.6528 123.793C22.3591 124.035 23.0001 124.024 23.5758 123.759C24.1449 123.48 24.5453 123.003 24.7771 122.327C25.0124 121.641 24.989 121.018 24.7071 120.459C24.4151 119.897 23.9159 119.495 23.2096 119.252L16.2172 116.855Z" fill="white"/>
<path d="M30.2608 113.722L19.3531 108.915L21.3276 104.435C21.6589 103.683 22.0831 103.078 22.6005 102.618C23.1221 102.148 23.7148 101.862 24.3783 101.758C25.0419 101.654 25.7544 101.77 26.5157 102.105C27.2575 102.432 27.8167 102.883 28.1932 103.457C28.56 104.026 28.7482 104.657 28.758 105.349L34.2033 104.777L33.0806 107.324L28.1531 107.793L27.3078 109.711L31.2609 111.453L30.2608 113.722ZM25.3313 108.84L26.3121 106.614C26.5229 106.136 26.554 105.695 26.4054 105.292C26.2612 104.878 25.9645 104.573 25.5156 104.375C25.0568 104.173 24.6262 104.158 24.2239 104.33C23.8258 104.493 23.5214 104.813 23.3106 105.291L22.3298 107.517L25.3313 108.84Z" fill="white"/>
<path d="M41.5081 92.3607C41.0975 93.0348 40.5962 93.5913 40.0043 94.0301C39.4124 94.4689 38.7747 94.7675 38.0913 94.9258C37.4079 95.0841 36.721 95.0841 36.0305 94.9259L36.2788 92.6418C37.0208 92.7564 37.6927 92.6785 38.2945 92.4081C38.9018 92.1285 39.3581 91.7382 39.6632 91.2372C39.9795 90.7179 40.1216 90.2487 40.0896 89.8295C40.0576 89.4104 39.8913 89.1093 39.5907 88.9262C39.3265 88.7653 39.0642 88.7242 38.8039 88.803C38.5345 88.8763 38.2627 89.0354 37.9886 89.2806L36.0676 90.9583C35.2673 91.6573 34.4981 92.0693 33.76 92.1943C33.0128 92.3138 32.3022 92.1683 31.628 91.7577C31.0176 91.386 30.5808 90.9139 30.3175 90.3414C30.0506 89.7542 29.9561 89.1097 30.0339 88.4077C30.1117 87.7058 30.3753 86.9858 30.8247 86.2479C31.2241 85.5919 31.7014 85.0646 32.2565 84.6658C32.8025 84.2614 33.3878 83.9872 34.0126 83.8432C34.6338 83.6844 35.2504 83.6666 35.8624 83.7895L35.6141 86.0736C35.0259 85.9527 34.4713 86.0021 33.9503 86.2218C33.4293 86.4416 33.0024 86.8248 32.6695 87.3714C32.3865 87.836 32.2638 88.2733 32.3014 88.6833C32.3389 89.0934 32.5171 89.3955 32.836 89.5896C33.3188 89.8837 33.8703 89.7574 34.4904 89.2109L36.3507 87.5712C37.1364 86.8758 37.8919 86.4554 38.6173 86.3102C39.3427 86.165 40.0561 86.306 40.7576 86.7332C41.368 87.1049 41.8039 87.5889 42.0652 88.1852C42.3321 88.7723 42.421 89.426 42.3321 90.1462C42.2433 90.8663 41.9686 91.6045 41.5081 92.3607Z" fill="white"/>
<path d="M47.8197 82.5959L39.9257 76.8564L38.1473 79.3022L36.4003 78.032L41.3965 71.1603L43.1435 72.4305L41.384 74.8505L49.2781 80.59L47.8197 82.5959Z" fill="white"/>
<path d="M57.6051 70.6923C57.0187 71.3698 56.3573 71.8977 55.6208 72.2759C54.8843 72.6542 54.1178 72.8795 53.3215 72.9521C52.524 73.0095 51.7383 72.9149 50.9644 72.6682C50.1904 72.4215 49.4727 72.012 48.8114 71.4395C48.15 70.8671 47.6383 70.2196 47.2762 69.4971C46.921 68.7665 46.7188 68.0059 46.6694 67.2155C46.6269 66.417 46.7401 65.6261 47.0088 64.843C47.2776 64.0599 47.7086 63.3255 48.302 62.64C48.8953 61.9545 49.5603 61.4226 50.2968 61.0443C51.0333 60.6661 51.7962 60.4447 52.5856 60.3803C53.3819 60.3078 54.1636 60.3989 54.9306 60.6537C55.7046 60.9004 56.4223 61.3099 57.0836 61.8823C57.7449 62.4548 58.2532 63.1063 58.6083 63.8369C58.9635 64.5675 59.1663 65.3356 59.2168 66.1411C59.2662 66.9315 59.1565 67.7183 58.8878 68.5014C58.619 69.2846 58.1915 70.0149 57.6051 70.6923ZM55.9114 69.2264C56.3861 68.6779 56.6869 68.0778 56.8139 67.4259C56.9397 66.7589 56.8891 66.1084 56.6619 65.4745C56.4417 64.8324 56.0413 64.2601 55.4606 63.7575C54.8799 63.2549 54.2561 62.9406 53.5891 62.8148C52.9291 62.6809 52.2821 62.7275 51.6482 62.9547C51.0212 63.1738 50.4703 63.5575 49.9956 64.106C49.521 64.6544 49.2166 65.2586 49.0827 65.9186C48.9558 66.5705 49.0024 67.2175 49.2226 67.8595C49.4498 68.4935 49.8537 69.0618 50.4344 69.5644C51.0151 70.067 51.6354 70.3853 52.2954 70.5192C52.9624 70.6451 53.6134 70.6019 54.2484 70.3898C54.8824 70.1626 55.4367 69.7748 55.9114 69.2264Z" fill="white"/>
<path d="M63.5333 64.0821L55.2136 55.5458L58.7198 52.1286C59.308 51.5553 59.9279 51.1522 60.5796 50.9192C61.239 50.6787 61.8958 50.6343 62.5501 50.7861C63.2044 50.9378 63.8219 51.3116 64.4026 51.9074C64.9684 52.4879 65.3187 53.1147 65.4533 53.7878C65.5805 54.4532 65.5193 55.1087 65.2697 55.7542L70.5343 57.2588L68.5405 59.2019L63.7952 57.7945L62.2942 59.2574L65.3094 62.3511L63.5333 64.0821ZM60.7865 57.7106L62.5282 56.0132C62.9025 55.6484 63.0962 55.2511 63.1092 54.8213C63.1299 54.384 62.9691 53.9897 62.6266 53.6383C62.2767 53.2793 61.8829 53.1045 61.4453 53.114C61.0153 53.116 60.6132 53.2994 60.2389 53.6642L58.4972 55.3617L60.7865 57.7106Z" fill="white"/>
<path d="M74.5393 54.0319L71.2383 50.014L63.8941 47.3507L66.0452 45.5834L70.6159 47.3157L69.7911 42.5059L71.9422 40.7386L73.1443 48.4273L76.4555 52.4575L74.5393 54.0319Z" fill="white"/>
<path d="M90.2687 42.4324L84.1707 32.1902L88.3776 29.6856C89.0833 29.2654 89.7802 29.018 90.4683 28.9436C91.1655 28.8636 91.8146 28.9737 92.4154 29.274C93.0162 29.5742 93.5294 30.0818 93.9551 30.7966C94.3698 31.4932 94.5641 32.1844 94.538 32.8703C94.5064 33.5471 94.2939 34.1702 93.9005 34.7396L98.6686 37.4312L96.2765 38.8554L91.9906 36.3795L90.1896 37.4517L92.3996 41.1636L90.2687 42.4324ZM89.0846 35.5958L91.1743 34.3516C91.6234 34.0842 91.9044 33.7431 92.0174 33.3282C92.1396 32.9079 92.0752 32.4869 91.8242 32.0653C91.5677 31.6346 91.2256 31.3727 90.7978 31.2798C90.3793 31.1814 89.9454 31.2659 89.4963 31.5333L87.4067 32.7775L89.0846 35.5958Z" fill="white"/>
<path d="M104.87 34.189L99.8303 23.3867L107.095 19.9976L108.008 21.9551L102.991 24.2957L104.134 26.7461L108.861 24.5408L109.774 26.4983L105.047 28.7035L106.204 31.183L111.221 28.8424L112.12 30.8066L104.87 34.189Z" fill="white"/>
<path d="M117.58 28.5333L117.367 15.9413L120.454 14.8307L128.314 24.6703L125.845 25.5589L124.269 23.5414L119.978 25.0855L120.049 27.6448L117.58 28.5333ZM119.909 22.8148L122.875 21.7474L119.763 17.7318L119.909 22.8148Z" fill="white"/>
<path d="M131.466 23.8216L128.502 12.2759L132.268 11.3093C133.518 10.9884 134.667 10.958 135.714 11.2179C136.761 11.4778 137.648 11.9767 138.377 12.7147C139.106 13.4526 139.614 14.3795 139.901 15.4953C140.187 16.6112 140.19 17.6731 139.909 18.6813C139.625 19.6791 139.087 20.544 138.295 21.2759C137.503 22.0078 136.482 22.5342 135.232 22.8551L131.466 23.8216ZM133.331 21.1129L134.757 20.747C135.511 20.5534 136.123 20.2365 136.594 19.7964C137.062 19.3459 137.376 18.8084 137.535 18.1839C137.701 17.5464 137.689 16.8557 137.498 16.1119C137.305 15.3576 136.983 14.7465 136.532 14.2785C136.092 13.8078 135.56 13.4929 134.935 13.3338C134.311 13.1747 133.621 13.192 132.867 13.3856L131.441 13.7515L133.331 21.1129Z" fill="white"/>
<path d="M160.529 18.6051C159.638 18.6978 158.794 18.63 157.998 18.4018C157.202 18.1735 156.489 17.8134 155.859 17.3213C155.238 16.8175 154.73 16.2108 154.334 15.5012C153.939 14.7917 153.696 14.0019 153.605 13.1319C153.515 12.2619 153.585 11.4396 153.815 10.665C154.056 9.8892 154.429 9.19623 154.934 8.58606C155.45 7.97478 156.074 7.47558 156.805 7.08846C157.537 6.70134 158.354 6.46088 159.256 6.36708C160.158 6.27329 161.007 6.3405 161.802 6.56873C162.598 6.79695 163.306 7.15767 163.926 7.65088C164.556 8.14298 165.064 8.74436 165.449 9.45502C165.844 10.1646 166.087 10.9543 166.178 11.8243C166.268 12.6943 166.193 13.5172 165.952 14.2929C165.711 15.0687 165.333 15.7675 164.819 16.3894C164.314 16.9996 163.695 17.4982 162.963 17.8853C162.232 18.2725 161.42 18.5124 160.529 18.6051ZM160.297 16.3771C161.019 16.3021 161.649 16.0703 162.187 15.6818C162.736 15.2816 163.144 14.7727 163.412 14.1549C163.691 13.5361 163.79 12.8448 163.711 12.0809C163.632 11.317 163.392 10.661 162.992 10.1127C162.602 9.56343 162.098 9.15467 161.481 8.88647C160.873 8.61716 160.209 8.52003 159.488 8.59506C158.766 8.6701 158.131 8.90241 157.582 9.29199C157.043 9.68047 156.634 10.1841 156.355 10.803C156.087 11.4207 155.993 12.1115 156.072 12.8754C156.152 13.6392 156.386 14.2958 156.776 14.8452C157.176 15.3934 157.68 15.8074 158.288 16.0873C158.906 16.3555 159.576 16.4521 160.297 16.3771Z" fill="white"/>
<path d="M176.521 5.82368L179.001 5.80031L179.07 13.192C179.079 14.0773 178.884 14.8792 178.485 15.5976C178.086 16.3161 177.521 16.8867 176.789 17.3097C176.068 17.7325 175.216 17.9485 174.235 17.9578C173.264 17.9669 172.409 17.7669 171.669 17.3579C170.929 16.9488 170.353 16.3889 169.941 15.6781C169.529 14.9673 169.319 14.1692 169.311 13.2839L169.241 5.89226L171.721 5.8689L171.791 13.2606C171.798 14.0072 172.022 14.6078 172.464 15.0623C172.916 15.5061 173.499 15.7246 174.214 15.7179C174.939 15.711 175.519 15.4815 175.952 15.0294C176.385 14.5667 176.598 13.962 176.591 13.2153L176.521 5.82368Z" fill="white"/>
<path d="M184.155 18.0211L185.052 6.13493L189.934 6.5036C190.753 6.56545 191.466 6.76366 192.072 7.09823C192.688 7.4336 193.156 7.89681 193.475 8.48784C193.794 9.07888 193.922 9.78922 193.86 10.6189C193.799 11.4272 193.56 12.1045 193.145 12.6508C192.73 13.1864 192.198 13.5741 191.549 13.8139L193.903 18.7572L191.127 18.5476L189.043 14.0579L186.953 13.9001L186.628 18.2078L184.155 18.0211ZM187.116 11.7462L189.541 11.9294C190.062 11.9687 190.488 11.8511 190.819 11.5766C191.16 11.3029 191.35 10.9214 191.387 10.4321C191.424 9.9322 191.295 9.52129 190.998 9.19938C190.712 8.87826 190.309 8.69803 189.788 8.65867L187.363 8.47555L187.116 11.7462Z" fill="white"/>
<path d="M208.043 21.5068C207.271 21.3443 206.579 21.0572 205.968 20.6453C205.357 20.2334 204.863 19.7317 204.486 19.1401C204.109 18.5485 203.88 17.9009 203.799 17.1972L206.036 16.6701C206.175 17.4078 206.472 18.0154 206.928 18.4927C207.394 18.9721 207.914 19.2723 208.488 19.393C209.083 19.5181 209.573 19.4957 209.957 19.3259C210.342 19.1561 210.57 18.8989 210.643 18.5544C210.706 18.2517 210.658 17.9908 210.497 17.7716C210.338 17.542 210.097 17.3388 209.775 17.162L207.553 15.91C206.627 15.3883 205.982 14.8003 205.618 14.1461C205.257 13.4815 205.157 12.7629 205.319 11.9905C205.467 11.2911 205.766 10.7219 206.218 10.2829C206.683 9.83561 207.259 9.53168 207.947 9.37111C208.635 9.21054 209.401 9.21916 210.247 9.39696C210.998 9.555 211.655 9.82926 212.215 10.2197C212.779 10.5998 213.232 11.0603 213.576 11.6013C213.933 12.1341 214.155 12.7095 214.243 13.3276L212.007 13.8546C211.925 13.2597 211.694 12.7532 211.313 12.3352C210.932 11.9173 210.428 11.6424 209.802 11.5107C209.27 11.3988 208.817 11.4288 208.443 11.6009C208.068 11.7729 207.843 12.0416 207.766 12.4069C207.65 12.9602 207.953 13.438 208.675 13.8405L210.84 15.0481C211.758 15.5572 212.406 16.1294 212.785 16.765C213.163 17.4005 213.268 18.1201 213.099 18.9239C212.952 19.6233 212.641 20.1955 212.166 20.6406C211.701 21.0879 211.115 21.3896 210.406 21.5458C209.697 21.702 208.91 21.6889 208.043 21.5068Z" fill="white"/>
<path d="M219.353 24.2034L222.134 14.8479L219.236 13.9863L219.851 11.9158L227.995 14.3365L227.379 16.407L224.511 15.5545L221.731 24.91L219.353 24.2034Z" fill="white"/>
<path d="M233.837 29.4624C233.003 29.1353 232.285 28.6876 231.682 28.1192C231.08 27.5508 230.612 26.9033 230.279 26.1767C229.959 25.444 229.786 24.6716 229.761 23.8597C229.736 23.0477 229.883 22.2346 230.202 21.4203C230.521 20.606 230.961 19.9078 231.522 19.3256C232.092 18.7473 232.742 18.3031 233.471 17.9931C234.209 17.687 234.993 17.5302 235.821 17.5226C236.649 17.5149 237.485 17.6766 238.329 18.0076C239.173 18.3387 239.896 18.7883 240.498 19.3567C241.1 19.9251 241.563 20.5706 241.887 21.2934C242.22 22.0201 242.395 22.7874 242.41 23.5955C242.436 24.4074 242.289 25.2206 241.969 26.0349C241.65 26.8491 241.205 27.5455 240.635 28.1238C240.064 28.7021 239.408 29.1492 238.665 29.4653C237.936 29.7753 237.158 29.9341 236.33 29.9417C235.502 29.9493 234.671 29.7895 233.837 29.4624ZM234.655 27.377C235.33 27.6418 235.996 27.7254 236.653 27.6279C237.324 27.5243 237.92 27.2598 238.442 26.8343C238.974 26.4127 239.38 25.8445 239.661 25.1295C239.941 24.4145 240.029 23.7216 239.926 23.0508C239.832 22.3839 239.573 21.7895 239.147 21.2674C238.732 20.7493 238.186 20.3578 237.511 20.093C236.836 19.8282 236.165 19.7427 235.498 19.8363C234.841 19.9339 234.246 20.1935 233.714 20.615C233.192 21.0405 232.791 21.6107 232.511 22.3257C232.23 23.0407 232.137 23.7316 232.231 24.3985C232.334 25.0693 232.592 25.6687 233.003 26.1968C233.429 26.7188 233.979 27.1122 234.655 27.377Z" fill="white"/>
<path d="M242.045 32.8492L247.321 22.1604L251.712 24.3274C252.448 24.6909 253.035 25.1411 253.472 25.6779C253.918 26.2194 254.179 26.8239 254.254 27.4914C254.329 28.1588 254.182 28.8656 253.814 29.6117C253.455 30.3386 252.981 30.8777 252.391 31.229C251.806 31.5707 251.168 31.7314 250.476 31.7111L250.812 37.1762L248.315 35.944L248.061 31.0008L246.181 30.0731L244.269 33.9469L242.045 32.8492ZM247.137 28.1362L249.318 29.2126C249.787 29.444 250.226 29.4942 250.636 29.3633C251.055 29.2371 251.373 28.954 251.59 28.514C251.812 28.0644 251.846 27.6349 251.691 27.2255C251.546 26.8208 251.239 26.5027 250.77 26.2714L248.589 25.195L247.137 28.1362Z" fill="white"/>
<path d="M255.189 39.877L257.877 35.4257L257.94 27.6138L260.323 29.053L260.213 33.9397L264.473 31.5592L266.857 32.9984L260.008 36.6941L257.311 41.159L255.189 39.877Z" fill="white"/>
<path d="M271.367 50.8418L278.991 41.6793L282.755 44.811C283.386 45.3364 283.852 45.911 284.151 46.5349C284.459 47.1657 284.571 47.8143 284.488 48.4809C284.406 49.1474 284.098 49.8004 283.566 50.44C283.047 51.0631 282.46 51.4766 281.805 51.6806C281.156 51.8764 280.498 51.8836 279.83 51.7025L278.881 57.095L276.741 55.3142L277.648 50.4482L276.036 49.1075L273.273 52.4282L271.367 50.8418ZM277.418 47.4472L279.287 49.0028C279.689 49.3371 280.105 49.4884 280.533 49.4567C280.97 49.4318 281.346 49.2308 281.66 48.8536C281.98 48.4683 282.113 48.0585 282.058 47.6242C282.012 47.1968 281.787 46.8159 281.386 46.4816L279.516 44.9259L277.418 47.4472Z" fill="white"/>
<path d="M284.004 61.8611L292.51 53.5098L298.126 59.2295L296.585 60.7428L292.706 56.7927L290.777 58.6871L294.431 62.4089L292.89 63.9223L289.235 60.2005L287.283 62.1174L291.162 66.0675L289.609 67.5694L284.004 61.8611Z" fill="white"/>
<path d="M293.572 71.9598L305.374 67.5633L307.449 70.103L300.791 80.793L299.131 78.7612L300.508 76.6028L297.622 73.072L295.233 73.9915L293.572 71.9598ZM299.74 72.2502L301.735 74.6908L304.484 70.4189L299.74 72.2502Z" fill="white"/>
<path d="M302.643 83.4822L312.541 76.8407L314.707 80.0693C315.426 81.1411 315.838 82.2138 315.942 83.2874C316.045 84.361 315.871 85.3644 315.418 86.2976C314.965 87.2309 314.261 88.0184 313.304 88.6603C312.347 89.3022 311.347 89.6587 310.303 89.7298C309.268 89.795 308.273 89.5761 307.319 89.073C306.365 88.57 305.528 87.7826 304.809 86.7108L302.643 83.4822ZM305.818 84.3381L306.638 85.5605C307.072 86.2071 307.575 86.6789 308.147 86.976C308.728 87.2672 309.339 87.3837 309.981 87.3256C310.637 87.2704 311.284 87.0288 311.922 86.6009C312.569 86.1671 313.038 85.6598 313.329 85.0791C313.626 84.5072 313.745 83.9004 313.687 83.2586C313.629 82.6168 313.383 81.9726 312.949 81.326L312.129 80.1036L305.818 84.3381Z" fill="white"/>
<path d="M317.246 109.146C316.862 108.337 316.644 107.519 316.594 106.692C316.544 105.866 316.646 105.074 316.9 104.315C317.168 103.562 317.571 102.881 318.108 102.272C318.645 101.662 319.309 101.17 320.099 100.795C320.889 100.419 321.688 100.211 322.495 100.17C323.307 100.139 324.084 100.26 324.828 100.533C325.576 100.815 326.255 101.237 326.864 101.798C327.472 102.359 327.971 103.049 328.36 103.868C328.749 104.687 328.969 105.51 329.019 106.336C329.069 107.162 328.965 107.95 328.706 108.699C328.452 109.457 328.054 110.136 327.513 110.736C326.975 111.345 326.312 111.837 325.522 112.212C324.731 112.588 323.931 112.791 323.119 112.822C322.307 112.853 321.522 112.73 320.765 112.452C320.021 112.18 319.345 111.763 318.736 111.202C318.127 110.641 317.63 109.955 317.246 109.146ZM319.269 108.185C319.581 108.84 320.009 109.357 320.555 109.736C321.115 110.119 321.731 110.334 322.403 110.381C323.079 110.438 323.764 110.302 324.458 109.972C325.151 109.643 325.69 109.198 326.074 108.638C326.462 108.088 326.679 107.477 326.726 106.805C326.778 106.143 326.648 105.484 326.337 104.829C326.026 104.174 325.595 103.652 325.045 103.264C324.499 102.885 323.888 102.668 323.211 102.611C322.54 102.564 321.857 102.705 321.163 103.035C320.469 103.364 319.928 103.804 319.54 104.355C319.157 104.915 318.934 105.528 318.873 106.195C318.826 106.866 318.958 107.53 319.269 108.185Z" fill="white"/>
<path d="M334.626 119.965L335.474 122.295L328.528 124.824C327.696 125.127 326.875 125.21 326.065 125.074C325.255 124.937 324.528 124.595 323.886 124.045C323.246 123.506 322.759 122.775 322.423 121.853C322.091 120.941 321.995 120.068 322.134 119.234C322.273 118.4 322.609 117.671 323.142 117.045C323.675 116.42 324.357 115.956 325.189 115.653L332.135 113.124L332.983 115.454L326.037 117.983C325.336 118.239 324.844 118.65 324.563 119.218C324.295 119.793 324.284 120.415 324.528 121.087C324.776 121.769 325.186 122.238 325.756 122.496C326.337 122.75 326.978 122.749 327.68 122.494L334.626 119.965Z" fill="white"/>
<path d="M325.67 131.226L337.175 128.112L338.455 132.838C338.669 133.63 338.72 134.368 338.606 135.051C338.496 135.744 338.215 136.339 337.764 136.837C337.313 137.335 336.686 137.692 335.883 137.91C335.1 138.122 334.382 138.123 333.729 137.913C333.086 137.7 332.543 137.328 332.1 136.796L328.224 140.663L327.497 137.976L331.035 134.515L330.488 132.491L326.318 133.62L325.67 131.226ZM332.572 131.927L333.208 134.275C333.345 134.779 333.597 135.142 333.967 135.362C334.338 135.593 334.761 135.644 335.235 135.516C335.719 135.385 336.063 135.126 336.268 134.739C336.475 134.363 336.511 133.922 336.374 133.417L335.739 131.07L332.572 131.927Z" fill="white"/>
<path d="M330.344 154.911C330.24 154.129 330.28 153.381 330.465 152.668C330.65 151.954 330.958 151.321 331.39 150.769C331.822 150.216 332.357 149.784 332.993 149.474L334.235 151.406C333.586 151.784 333.112 152.266 332.814 152.855C332.517 153.454 332.408 154.044 332.485 154.626C332.566 155.229 332.75 155.683 333.038 155.989C333.326 156.295 333.645 156.424 333.994 156.378C334.3 156.337 334.53 156.204 334.683 155.979C334.847 155.753 334.958 155.459 335.017 155.096L335.457 152.583C335.641 151.537 335.98 150.733 336.476 150.172C336.982 149.609 337.626 149.276 338.409 149.172C339.117 149.077 339.754 149.17 340.318 149.45C340.895 149.739 341.373 150.181 341.754 150.776C342.135 151.371 342.382 152.097 342.496 152.953C342.597 153.714 342.558 154.424 342.376 155.083C342.206 155.741 341.923 156.322 341.527 156.827C341.144 157.341 340.675 157.742 340.122 158.031L338.88 156.098C339.413 155.823 339.814 155.436 340.081 154.937C340.348 154.439 340.439 153.873 340.355 153.238C340.283 152.699 340.104 152.282 339.817 151.986C339.53 151.691 339.202 151.568 338.831 151.617C338.271 151.692 337.921 152.137 337.782 152.952L337.366 155.396C337.192 156.431 336.868 157.232 336.395 157.801C335.922 158.37 335.278 158.709 334.464 158.817C333.756 158.912 333.113 158.809 332.535 158.509C331.958 158.22 331.478 157.768 331.095 157.152C330.711 156.536 330.461 155.789 330.344 154.911Z" fill="white"/>
<path d="M331.571 166.473L341.318 165.977L341.164 162.957L343.322 162.848L343.753 171.333L341.596 171.442L341.444 168.454L331.697 168.95L331.571 166.473Z" fill="white"/>
<path d="M331.439 181.882C331.469 180.986 331.652 180.16 331.987 179.403C332.322 178.646 332.777 177.989 333.351 177.432C333.935 176.886 334.606 176.466 335.363 176.172C336.12 175.877 336.936 175.745 337.81 175.775C338.684 175.805 339.489 175.987 340.225 176.321C340.96 176.666 341.595 177.131 342.13 177.715C342.665 178.309 343.074 178.995 343.357 179.774C343.64 180.552 343.766 181.394 343.736 182.3C343.705 183.206 343.522 184.038 343.187 184.795C342.851 185.552 342.397 186.203 341.823 186.749C341.249 187.306 340.584 187.727 339.827 188.01C339.07 188.305 338.255 188.437 337.38 188.408C336.506 188.378 335.702 188.19 334.966 187.845C334.231 187.5 333.59 187.03 333.045 186.435C332.51 185.851 332.101 185.17 331.818 184.392C331.535 183.614 331.408 182.777 331.439 181.882ZM333.677 181.958C333.653 182.683 333.796 183.339 334.107 183.926C334.428 184.524 334.876 184.998 335.451 185.348C336.026 185.709 336.697 185.903 337.465 185.929C338.232 185.955 338.915 185.807 339.513 185.486C340.111 185.176 340.584 184.733 340.935 184.158C341.285 183.593 341.472 182.949 341.497 182.224C341.522 181.499 341.379 180.838 341.068 180.24C340.757 179.653 340.314 179.179 339.74 178.818C339.164 178.468 338.493 178.279 337.726 178.253C336.958 178.227 336.275 178.37 335.678 178.68C335.08 179.001 334.601 179.444 334.24 180.008C333.89 180.583 333.702 181.233 333.677 181.958Z" fill="white"/>
<path d="M330.981 190.75L342.817 192.162L342.237 197.024C342.139 197.839 341.91 198.542 341.55 199.133C341.188 199.734 340.705 200.182 340.101 200.475C339.496 200.768 338.781 200.865 337.955 200.767C337.15 200.671 336.484 200.403 335.956 199.964C335.439 199.526 335.075 198.978 334.863 198.319L329.822 200.457L330.152 197.693L334.728 195.805L334.976 193.724L330.687 193.212L330.981 190.75ZM337.121 193.98L336.833 196.395C336.771 196.914 336.87 197.345 337.13 197.687C337.389 198.04 337.762 198.246 338.249 198.304C338.747 198.364 339.163 198.252 339.497 197.97C339.83 197.698 340.028 197.303 340.09 196.784L340.378 194.369L337.121 193.98Z" fill="white"/>
<path d="M328.735 205.484L333.827 206.535L341.214 203.992L340.651 206.718L336.007 208.243L339.671 211.466L339.108 214.193L333.341 208.967L328.233 207.912L328.735 205.484Z" fill="white"/>
<path d="M323.787 224.391L334.967 228.526L333.268 233.118C332.983 233.889 332.597 234.519 332.108 235.009C331.616 235.51 331.042 235.832 330.386 235.976C329.73 236.12 329.012 236.047 328.231 235.759C327.471 235.478 326.886 235.062 326.475 234.512C326.074 233.966 325.848 233.347 325.796 232.657L320.396 233.56L321.362 230.949L326.251 230.181L326.979 228.216L322.927 226.717L323.787 224.391ZM329.004 228.965L328.161 231.246C327.979 231.736 327.975 232.178 328.148 232.572C328.317 232.976 328.632 233.263 329.092 233.433C329.562 233.607 329.993 233.595 330.384 233.399C330.771 233.212 331.056 232.874 331.237 232.384L332.081 230.103L329.004 228.965Z" fill="white"/>
<path d="M317.61 239.978L328.318 245.215L324.797 252.416L322.857 251.467L325.289 246.494L322.859 245.306L320.568 249.992L318.628 249.043L320.919 244.357L318.461 243.155L316.029 248.128L314.096 247.165L317.61 239.978Z" fill="white"/>
<path d="M311.277 252.365L319.354 262.027L317.652 264.83L305.354 262.115L306.716 259.872L309.21 260.451L311.578 256.554L309.914 254.607L311.277 252.365ZM313.058 258.277L311.422 260.971L316.366 262.139L313.058 258.277Z" fill="white"/>
<path d="M303.435 264.756L312.996 271.876L310.674 274.994C309.903 276.029 309.029 276.774 308.051 277.23C307.073 277.686 306.069 277.856 305.038 277.74C304.007 277.624 303.03 277.222 302.106 276.534C301.182 275.846 300.513 275.021 300.098 274.06C299.691 273.106 299.566 272.095 299.722 271.028C299.879 269.961 300.342 268.91 301.113 267.875L303.435 264.756ZM303.687 268.035L302.807 269.216C302.342 269.841 302.065 270.472 301.975 271.11C301.895 271.755 301.988 272.37 302.257 272.955C302.528 273.556 302.971 274.086 303.587 274.545C304.212 275.01 304.846 275.283 305.491 275.364C306.129 275.453 306.741 275.364 307.327 275.095C307.913 274.826 308.438 274.38 308.903 273.755L309.782 272.575L303.687 268.035Z" fill="white"/>
<path d="M284.105 287.077C284.74 286.445 285.438 285.968 286.201 285.645C286.963 285.323 287.744 285.155 288.544 285.141C289.343 285.143 290.12 285.296 290.874 285.599C291.627 285.903 292.312 286.364 292.93 286.984C293.547 287.604 294.009 288.288 294.316 289.035C294.616 289.79 294.762 290.564 294.752 291.355C294.735 292.155 294.564 292.935 294.238 293.696C293.912 294.457 293.428 295.158 292.785 295.797C292.142 296.437 291.44 296.918 290.677 297.241C289.915 297.563 289.138 297.727 288.346 297.733C287.546 297.746 286.773 297.598 286.027 297.287C285.274 296.983 284.588 296.521 283.971 295.902C283.354 295.282 282.896 294.594 282.596 293.839C282.296 293.084 282.15 292.303 282.16 291.496C282.169 290.704 282.337 289.928 282.663 289.167C282.989 288.406 283.47 287.709 284.105 287.077ZM285.685 288.665C285.171 289.176 284.826 289.753 284.651 290.393C284.476 291.049 284.479 291.702 284.658 292.351C284.83 293.007 285.187 293.608 285.729 294.152C286.271 294.696 286.87 295.056 287.525 295.231C288.174 295.413 288.822 295.415 289.471 295.235C290.113 295.063 290.691 294.721 291.205 294.21C291.719 293.698 292.067 293.118 292.249 292.47C292.424 291.829 292.426 291.18 292.254 290.524C292.074 289.875 291.714 289.278 291.172 288.734C290.63 288.19 290.035 287.826 289.387 287.644C288.731 287.469 288.079 287.463 287.43 287.628C286.781 287.807 286.199 288.153 285.685 288.665Z" fill="white"/>
<path d="M279.696 307.069L277.782 308.646L273.083 302.939C272.52 302.256 272.168 301.51 272.026 300.7C271.885 299.891 271.966 299.092 272.27 298.303C272.565 297.52 273.092 296.817 273.849 296.194C274.598 295.577 275.389 295.195 276.222 295.048C277.055 294.901 277.855 294.975 278.622 295.269C279.389 295.563 280.054 296.052 280.617 296.735L285.316 302.441L283.401 304.018L278.702 298.312C278.228 297.735 277.676 297.409 277.047 297.333C276.416 297.272 275.825 297.468 275.273 297.923C274.713 298.384 274.407 298.926 274.354 299.55C274.308 300.182 274.522 300.786 274.997 301.363L279.696 307.069Z" fill="white"/>
<path d="M266.093 302.377L272.864 312.188L268.835 314.969C268.159 315.435 267.48 315.729 266.799 315.849C266.108 315.976 265.453 315.909 264.834 315.65C264.214 315.391 263.668 314.919 263.195 314.234C262.735 313.567 262.495 312.89 262.475 312.204C262.461 311.527 262.631 310.891 262.986 310.296L258.048 307.93L260.339 306.349L264.781 308.532L266.506 307.342L264.052 303.786L266.093 302.377ZM267.733 309.119L265.732 310.501C265.302 310.798 265.044 311.157 264.959 311.578C264.865 312.006 264.958 312.422 265.237 312.825C265.521 313.238 265.88 313.476 266.313 313.54C266.737 313.61 267.165 313.497 267.595 313.2L269.596 311.819L267.733 309.119Z" fill="white"/>
<path d="M245.321 314.677C246.024 314.318 246.742 314.107 247.476 314.044C248.21 313.98 248.91 314.06 249.575 314.283C250.24 314.507 250.825 314.866 251.33 315.363L249.922 317.178C249.35 316.692 248.737 316.406 248.083 316.321C247.419 316.241 246.826 316.334 246.303 316.601C245.762 316.878 245.395 317.203 245.203 317.577C245.01 317.95 244.994 318.294 245.154 318.607C245.295 318.883 245.497 319.055 245.76 319.125C246.027 319.203 246.342 319.21 246.704 319.145L249.22 318.723C250.267 318.547 251.139 318.599 251.833 318.879C252.532 319.169 253.061 319.666 253.42 320.368C253.745 321.005 253.869 321.636 253.794 322.262C253.713 322.901 253.456 323.5 253.022 324.057C252.588 324.614 251.986 325.089 251.217 325.482C250.533 325.832 249.85 326.031 249.168 326.079C248.491 326.138 247.849 326.064 247.241 325.86C246.629 325.669 246.094 325.361 245.638 324.936L247.046 323.121C247.484 323.532 247.982 323.781 248.541 323.866C249.1 323.952 249.664 323.85 250.234 323.559C250.719 323.311 251.052 323.003 251.235 322.634C251.418 322.265 251.425 321.914 251.255 321.582C250.998 321.079 250.462 320.897 249.647 321.038L247.204 321.459C246.17 321.64 245.306 321.602 244.612 321.346C243.918 321.089 243.385 320.595 243.011 319.864C242.686 319.227 242.568 318.587 242.658 317.942C242.739 317.302 243.005 316.699 243.458 316.132C243.912 315.565 244.532 315.08 245.321 314.677Z" fill="white"/>
<path d="M234.828 319.687L238.544 328.712L241.34 327.56L242.162 329.558L234.306 332.792L233.484 330.795L236.251 329.656L232.535 320.631L234.828 319.687Z" fill="white"/>
<path d="M220.256 324.697C221.111 324.428 221.951 324.325 222.776 324.388C223.601 324.452 224.372 324.662 225.089 325.017C225.798 325.386 226.418 325.879 226.947 326.494C227.477 327.11 227.874 327.835 228.137 328.669C228.401 329.503 228.497 330.323 228.427 331.128C228.346 331.936 228.12 332.69 227.748 333.389C227.366 334.091 226.855 334.706 226.216 335.232C225.576 335.758 224.825 336.158 223.96 336.431C223.095 336.703 222.25 336.808 221.425 336.744C220.599 336.68 219.833 336.469 219.127 336.11C218.411 335.755 217.793 335.268 217.273 334.649C216.743 334.033 216.347 333.308 216.084 332.474C215.82 331.64 215.729 330.819 215.809 330.01C215.89 329.202 216.119 328.441 216.498 327.729C216.871 327.03 217.376 326.417 218.016 325.891C218.655 325.365 219.402 324.967 220.256 324.697ZM220.93 326.833C220.239 327.052 219.668 327.405 219.218 327.894C218.762 328.396 218.464 328.977 218.325 329.636C218.176 330.298 218.217 330.995 218.449 331.727C218.68 332.46 219.046 333.054 219.548 333.511C220.04 333.971 220.616 334.27 221.275 334.409C221.924 334.551 222.594 334.513 223.286 334.294C223.977 334.076 224.553 333.721 225.013 333.229C225.463 332.74 225.762 332.165 225.911 331.503C226.05 330.844 226.003 330.148 225.772 329.416C225.541 328.683 225.18 328.087 224.688 327.627C224.186 327.17 223.608 326.866 222.956 326.714C222.297 326.575 221.622 326.615 220.93 326.833Z" fill="white"/>
<path d="M211.743 327.22L214.355 338.851L209.578 339.924C208.777 340.104 208.038 340.122 207.36 339.979C206.673 339.838 206.09 339.532 205.612 339.06C205.135 338.588 204.805 337.946 204.622 337.134C204.445 336.343 204.475 335.626 204.713 334.982C204.953 334.349 205.349 333.822 205.9 333.403L202.204 329.363L204.921 328.753L208.225 332.438L210.27 331.979L209.323 327.764L211.743 327.22ZM210.743 334.086L208.37 334.62C207.86 334.734 207.487 334.971 207.251 335.33C207.004 335.692 206.934 336.112 207.042 336.591C207.152 337.08 207.396 337.435 207.773 337.656C208.141 337.88 208.579 337.934 209.089 337.82L211.462 337.287L210.743 334.086Z" fill="white"/>
<path d="M197.102 330.013L197.808 335.164L202.668 341.281L199.909 341.659L196.924 337.789L195.106 342.317L192.348 342.695L195.353 335.517L194.645 330.349L197.102 330.013Z" fill="white"/>
</svg>
