<?xml version="1.0" encoding="utf-8"?>
<!-- Generator: Adobe Illustrator 19.0.0, SVG Export Plug-In . SVG Version: 6.00 Build 0)  -->
<svg version="1.1" id="Layer_1" xmlns="http://www.w3.org/2000/svg" xmlns:xlink="http://www.w3.org/1999/xlink" x="0px" y="0px"
	 viewBox="414 -148 1440 1089" style="enable-background:new 414 -148 1440 1089;" xml:space="preserve">
<style type="text/css">
	.st0{fill:#FFFFFF;filter:url(#Adobe_OpacityMaskFilter);}
	.st1{mask:url(#mask0);}
	.st2{opacity:4.000000e-002;fill:#FFFFFF;enable-background:new    ;}
</style>
<defs>
	<filter id="Adobe_OpacityMaskFilter" filterUnits="userSpaceOnUse" x="-128.7" y="25.5" width="1658.4" height="1297">
		<feColorMatrix  type="matrix" values="1 0 0 0 0  0 1 0 0 0  0 0 1 0 0  0 0 0 1 0"/>
	</filter>
</defs>
<mask maskUnits="userSpaceOnUse" x="-128.7" y="25.5" width="1658.4" height="1297" id="mask0">
	<rect x="414" y="-148" class="st0" width="1440" height="1089"/>
</mask>
<g class="st1">
	<path class="st2" d="M693.2,26.9c4.7-1.8,9.9-1.8,14.6,0L1517,344c7.7,3,12.7,10.4,12.7,18.6v622.7c0,8.2-5,15.6-12.7,18.6
		l-809.2,317.2c-4.7,1.8-9.9,1.8-14.6,0L-116,1004c-7.7-3-12.7-10.4-12.7-18.6V362.6c0-8.2,5-15.6,12.7-18.6L693.2,26.9z"/>
</g>
</svg>
